<svg width="190" height="91" viewBox="0 0 190 91" fill="none" xmlns="http://www.w3.org/2000/svg">
<mask id="mask0_12_545" style="mask-type:luminance" maskUnits="userSpaceOnUse" x="0" y="0" width="190" height="91">
<path d="M190 0H0V90.4032H190V0Z" fill="white"/>
</mask>
<g mask="url(#mask0_12_545)">
<mask id="mask1_12_545" style="mask-type:luminance" maskUnits="userSpaceOnUse" x="1" y="0" width="190" height="91">
<path d="M190.977 0H1V90.4032H190.977V0Z" fill="white"/>
</mask>
<g mask="url(#mask1_12_545)">
<path d="M45.6184 42.7655H35.0786L31.8536 34.9064H14.2964L11.3596 42.7655H1L16.8278 3.06897H28.1693L45.6184 42.7655ZM22.6471 12.5491L16.8907 27.9762H28.9799L22.6471 12.5491Z" fill="white"/>
<path d="M83.895 3.06897H92.4168V42.7655H82.6249V17.9677L72.0309 30.4166H70.5356L59.9416 17.9677V42.7655H50.1497V3.06897H58.6715L71.2831 17.7947L83.895 3.06897Z" fill="white"/>
<path d="M117.217 3.06897C131.549 3.06897 138.918 12.0847 138.918 22.9764C138.918 34.3873 131.784 42.7655 116.118 42.7655H99.8849V3.06897H117.217ZM109.668 35.4891H116.055C125.901 35.4891 128.838 28.7409 128.838 22.9127C128.838 16.1008 125.207 10.3453 115.938 10.3453H109.668V35.4891Z" fill="white"/>
<path d="M178.636 12.4763H158.395L146.044 0H190.977V45.4246L178.636 32.9485V12.4763Z" fill="white"/>
<path d="M158.377 32.9584V14.9816L145.666 27.822V45.808H163.458L176.159 32.9584H158.377Z" fill="white"/>
<path d="M68.0946 68.1639H87.2013L68.0946 84.802V90.4027H95.5701V84.8474H76.4634L95.5701 68.2094V62.6089H68.0946V68.1639Z" fill="white"/>
<path d="M47.8527 73.628L39.9884 62.6089H33.1959L45.0781 79.2833V90.4027H50.5731V79.2833L62.5182 62.6089H55.7259L47.8527 73.628Z" fill="white"/>
<path d="M130.73 62.6089H103.245V68.1639H130.73V62.6089Z" fill="white"/>
<path d="M103.245 73.7279V90.4026H130.73V84.8475H108.749V79.2832H130.73V73.7279H103.245Z" fill="white"/>
<path d="M6.4951 79.2864H16.6385L22.9894 90.4058H29.3404L22.9894 79.2864C26.0252 79.2864 28.4846 76.8001 28.4846 73.7311V68.176C28.4846 65.1071 26.0252 62.621 22.9894 62.621H1V68.176H22.6021C22.8182 68.176 22.9894 68.3491 22.9894 68.5676V73.3396C22.9894 73.5582 22.8182 73.7311 22.6021 73.7311H1V79.2864V90.4058H6.4951V79.2864Z" fill="white"/>
<path d="M161.07 62.6178V81.9333L144.611 62.6178H139.071V90.3935H144.567V71.078L161.024 90.3935H166.556V62.6178H161.07Z" fill="white"/>
</g>
</g>
</svg>
