<svg width="1940" height="138" viewBox="0 0 1940 138" fill="none" xmlns="http://www.w3.org/2000/svg">
<mask id="mask0_7_37" style="mask-type:alpha" maskUnits="userSpaceOnUse" x="0" y="0" width="1940" height="130">
<path d="M0 130V25.5974H85.3748H217L235 41.6585L263 12.0458H286.5L305 25.5974H849H873.5L874 22.5L867 13H891L884.5 22.5L894.5 35.6356L905.5 25.5974H1039.5L1055 39.1489L1115 37.6432L1126 25.5974H1244.5H1264L1278.5 39.1489H1285.5L1325.5 0L1347 22.5859H1648.5L1651 16.0611L1646 8.53246H1665.5L1662.5 21.5821L1671.5 31.1184L1682 20.5783H1817L1830.5 35.1337H1894L1912.5 12.5477H1940V130H0Z" fill="#F75049"/>
</mask>
<g mask="url(#mask0_7_37)">
<rect y="-64" width="1940" height="1042" fill="black"/>
</g>
</svg>
