<svg width="231" height="99" viewBox="0 0 231 99" fill="none" xmlns="http://www.w3.org/2000/svg">
<mask id="mask0_12_617" style="mask-type:luminance" maskUnits="userSpaceOnUse" x="0" y="0" width="231" height="99">
<path d="M230.77 0.271729H0.902344V98.8618H230.77V0.271729Z" fill="white"/>
</mask>
<g mask="url(#mask0_12_617)">
<path d="M17.6147 88.1355C18.908 86.6999 20.2791 85.3363 21.7219 84.0508C21.4408 84.0271 20.9948 83.9726 20.5109 83.8979C19.4672 84.8467 18.1389 86.2367 16.9434 87.514C15.43 89.146 14.1859 90.568 14.1859 90.5751C14.1669 90.587 14.1586 90.6143 14.1385 90.6297C13.1493 90.9025 11.4735 91.3638 10.3562 91.6639C8.70294 92.1205 7.21923 92.0114 7.21923 93.0871C7.21923 93.0871 5.50781 94.0039 5.90631 95.3714C5.90631 95.3714 9.34576 92.6305 12.2788 92.1692C12.2788 92.1692 10.4855 93.3362 10.6456 94.9183C10.6456 94.9183 13.0639 91.3022 15.889 93.4951C15.889 93.4951 14.6307 91.7849 15.1549 90.8432C15.6091 90.3367 16.5437 89.2871 17.6147 88.1355ZM12.1697 45.4294C12.0241 45.4922 11.8668 45.5229 11.7083 45.5195C11.4555 45.5177 11.209 45.4405 11.0003 45.2979C10.7916 45.1553 10.6301 44.9538 10.5365 44.7189C10.5125 44.6747 10.4953 44.6272 10.4855 44.5778L10.1143 44.7023C10.1788 44.9143 10.2845 45.1115 10.4254 45.2825C10.5663 45.4534 10.7396 45.5949 10.9353 45.6987C11.131 45.8026 11.3453 45.8667 11.5659 45.8874C11.7865 45.9081 12.009 45.8851 12.2207 45.8196C12.4272 45.748 12.6164 45.6336 12.7757 45.4839C13.015 45.2508 13.1824 44.9538 13.2579 44.6284C13.3333 44.3029 13.3138 43.9626 13.2015 43.648L12.3452 43.9409C12.403 44.0684 12.4337 44.2065 12.4353 44.3465C12.4366 44.466 12.4128 44.5844 12.3654 44.694L12.7556 44.9312C12.6865 45.0392 12.6022 45.1367 12.5053 45.2206C12.4082 45.3116 12.2942 45.3825 12.1697 45.4294ZM46.7694 42.6612L29.8817 46.7767L62.8767 32.5113L35.6932 35.838L50.2408 25.2172L34.6471 31.3015L37.0037 26.58L25.848 34.6081L25.7543 34.4397L41.5699 0.271729L15.8558 30.6919L15.6957 14.1066L6.25974 36.2757L5.76517 29.7395L1.11717 46.7411H1.12547C1.57505 46.4267 2.0708 46.1843 2.59495 46.0224C2.66137 46.0034 2.73134 45.9868 2.79776 45.9678C2.80606 45.9678 2.81318 45.9595 2.82504 45.9595C2.89145 45.9441 2.96143 45.9287 3.02784 45.9168C3.03615 45.9168 3.04682 45.9085 3.05868 45.9085C3.13004 45.8955 3.20212 45.8867 3.27454 45.8824V45.8741C3.34926 45.8658 3.41923 45.8658 3.48565 45.8587H3.52834C3.60088 45.8509 3.67404 45.8509 3.74657 45.8587C3.75615 45.8595 3.76545 45.8623 3.77385 45.867C3.8394 45.8665 3.90488 45.8716 3.96954 45.8824C3.98132 45.8844 3.99335 45.8844 4.00512 45.8824C4.07508 45.8909 4.14442 45.904 4.21268 45.9216C4.22709 45.9233 4.24137 45.926 4.25537 45.9299C4.32535 45.9488 4.40007 45.969 4.47834 45.9927C5.42939 46.3346 6.46981 46.3346 7.42086 45.9927C7.42086 45.9927 8.92117 46.9534 8.92117 47.7575C8.92117 47.7575 6.95238 47.8761 6.95238 46.9996C4.94532 46.4734 2.82127 46.6175 0.903687 47.41L8.33883 50.604C8.33883 50.5684 7.94033 49.1807 8.36967 48.7063C8.50606 48.5379 8.74445 48.4834 9.12042 48.6091C9.16711 48.6333 9.21965 48.6438 9.27207 48.6397C9.32448 48.6355 9.37467 48.6166 9.41692 48.5854C9.9957 47.9923 7.18958 42.8142 7.18958 42.8142C6.30683 42.7978 5.43082 42.9709 4.62063 43.3218C3.81044 43.6726 3.08491 44.1931 2.49295 44.8482C2.34826 45 2.2 45.1601 2.05887 45.3369C2.61496 44.3934 3.3272 43.5512 4.16524 42.8462C4.93485 42.19 5.83517 41.7049 6.8065 41.423C7.09589 40.7315 6.72822 41.1858 7.32242 40.8181V40.8098C7.93842 36.9131 9.62989 33.2656 12.2064 30.278C12.4436 30.0123 12.6915 29.7431 12.9524 29.4857C12.4653 30.3898 12.155 31.3784 12.038 32.3986C12.6875 31.4649 13.4156 30.5884 14.2144 29.7787C14.202 29.7956 14.1917 29.8139 14.1835 29.8332C13.9487 30.3254 12.2539 33.9546 12.4294 35.0114C12.4339 35.0186 12.4368 35.0267 12.4377 35.0351L15.8772 31.8874L15.8617 31.8993C15.7597 32.0357 12.6346 36.2614 12.325 37.7108V37.7226L17.5293 34.0092V34.0175C17.5139 34.0483 16.8734 34.9355 16.6066 35.4229C16.5042 35.5765 16.4303 35.7473 16.3883 35.927L16.3966 35.9543L19.198 34.7516C19.198 34.7516 19.0794 34.8963 18.8813 35.1074L17.8377 36.1654L17.5803 36.4382L15.6827 38.3512L15.6471 38.3939L14.2025 39.861L13.2762 40.8015C12.9283 41.1494 12.6416 41.5536 12.4282 41.997C12.4142 42.1262 12.4385 42.2566 12.4982 42.372C12.5579 42.4874 12.6503 42.5826 12.7639 42.6458C13.1502 42.8606 13.458 43.193 13.6427 43.5946C13.7474 43.843 13.8006 44.1101 13.7993 44.3797C13.7999 44.6433 13.747 44.9042 13.6436 45.1466C13.5402 45.3891 13.3886 45.6079 13.1979 45.7899C12.823 46.1505 12.3281 46.3599 11.8082 46.3778C11.2883 46.3958 10.7801 46.221 10.3812 45.8872C10.741 46.3062 11.2439 46.5764 11.792 46.645C12.3401 46.7136 12.8941 46.5758 13.3462 46.2584L15.6708 44.5636L15.7728 44.4853L18.1757 42.7276C18.7865 43.4632 19.3176 44.2615 19.7602 45.1091C18.337 46.4648 15.8997 48.8154 13.4743 51.3879C12.025 52.9143 10.5792 54.5321 9.34813 56.0585L10.2151 51.9892L10.2851 51.6536C10.2851 51.6536 10.2851 51.6536 10.2851 51.6619C10.277 51.6641 10.2691 51.6669 10.2614 51.6702L10.2495 51.682C10.2495 51.682 10.2305 51.682 10.2258 51.701C10.2227 51.7013 10.2199 51.7026 10.2177 51.7048C10.2155 51.707 10.2142 51.7098 10.2139 51.7129C10.2033 51.7172 10.193 51.7224 10.1831 51.7283C10.1779 51.7374 10.1694 51.7442 10.1594 51.7473C10.1482 51.7561 10.1363 51.764 10.1238 51.771C10.1157 51.781 10.1065 51.7902 10.0965 51.7983C10.0847 51.8101 10.0811 51.8173 10.0609 51.822C10.0501 51.8349 10.0382 51.8468 10.0254 51.8576C10.0135 51.8659 9.99807 51.8849 9.98265 51.8884C9.97391 51.9052 9.96025 51.9188 9.94352 51.9276C9.92482 51.9396 9.90769 51.954 9.89252 51.9703C9.8785 51.9823 9.86542 51.9954 9.85338 52.0094C9.83163 52.0221 9.81299 52.0395 9.79882 52.0604C9.7751 52.0687 9.76799 52.0841 9.74426 52.096C9.72891 52.119 9.70916 52.1387 9.68615 52.1541C9.67007 52.1709 9.65304 52.1867 9.63515 52.2015C9.61017 52.2206 9.58784 52.243 9.56873 52.2679C9.55229 52.2843 9.53398 52.2986 9.51418 52.3106C9.49432 52.3423 9.46756 52.3691 9.4359 52.3889C9.41963 52.4022 9.40418 52.4165 9.38965 52.4316C9.37446 52.4479 9.35733 52.4622 9.33865 52.4743C9.33865 52.4826 9.33865 52.4826 9.33865 52.4826C9.31493 52.5063 9.28409 52.5372 9.25681 52.568C9.23358 52.585 9.21385 52.6064 9.1987 52.6309C9.16952 52.6549 9.14217 52.6811 9.11686 52.7091L9.05044 52.7756C9.03147 52.8028 9.00775 52.823 8.99589 52.842C8.98468 52.8513 8.97436 52.8616 8.96505 52.8728C8.96505 52.8728 8.95675 52.8847 8.94607 52.8918L8.89508 52.9428L8.82866 53.0175C8.82764 53.0222 8.82531 53.0264 8.82194 53.0298C8.81858 53.0331 8.81433 53.0355 8.80968 53.0365C8.80146 53.0453 8.79232 53.0533 8.7824 53.0602C8.77099 53.0818 8.75476 53.1005 8.73496 53.1148C8.70908 53.1508 8.6788 53.1835 8.64483 53.212C8.62111 53.2476 8.59383 53.2701 8.57011 53.3057C8.54639 53.3413 8.50725 53.3757 8.47997 53.4077C8.45269 53.4397 8.42897 53.4706 8.40169 53.5014C8.37441 53.5322 8.33883 53.5797 8.30444 53.62C8.27004 53.6603 8.25344 53.6829 8.22616 53.7173C8.19888 53.7517 8.1633 53.7955 8.12891 53.8418C8.10092 53.8714 8.07478 53.9027 8.05063 53.9355C8.01505 53.9865 7.98066 54.0292 7.94152 54.0802C7.91664 54.1102 7.89328 54.1415 7.87154 54.1739C7.82885 54.232 7.7814 54.2925 7.73515 54.3494C7.71973 54.3731 7.69601 54.4004 7.68415 54.4194C7.62129 54.5048 7.55132 54.5949 7.4932 54.6886L7.4849 54.6969C7.42204 54.787 7.36037 54.8724 7.30107 54.9626C7.28426 54.9907 7.26605 55.0181 7.24651 55.0444C7.20381 55.1108 7.15637 55.1808 7.11012 55.2508L7.0437 55.3528C7.00101 55.4192 6.96187 55.4821 6.91443 55.5485C6.89071 55.5912 6.87173 55.6267 6.84801 55.6671C6.81243 55.7335 6.76617 55.8035 6.72348 55.8734C6.7045 55.9161 6.67604 55.9553 6.65706 55.998C6.61436 56.0644 6.57878 56.1391 6.53253 56.2055C6.50881 56.2411 6.48153 56.2909 6.45781 56.3301C6.41511 56.4083 6.37597 56.4783 6.33328 56.553C6.3143 56.5957 6.29058 56.6384 6.26686 56.6859C6.07591 57.0417 5.88733 57.3975 5.69994 57.7948V57.8031L4.74283 57.9632C4.93378 57.471 5.12235 57.0227 5.32872 56.6005L3.76911 58.7946L5.32872 58.6428C3.66949 62.693 2.8776 67.0459 3.00412 71.421L4.27435 70.6168C4.62768 72.51 5.37886 74.3066 6.4782 75.8878C7.57754 77.469 9.00001 78.7989 10.6516 79.7895L10.6433 79.7504C13.7577 81.7466 17.2769 83.0259 20.9462 83.4958C21.4858 83.5622 21.9235 83.6049 22.0207 83.6144C22.0868 83.6246 22.1533 83.6313 22.22 83.6346C24.2543 83.8124 26.3025 83.7535 28.3232 83.459C28.3232 83.5326 28.3114 83.6073 28.3114 83.682C28.249 84.205 28.3757 84.733 28.6687 85.1707C28.9617 85.6083 29.4016 85.9267 29.9089 86.0683C28.607 88.4047 27.4938 90.8415 26.5798 93.3552C26.5067 93.5946 26.3829 93.8154 26.2169 94.0027C25.8824 94.0774 25.5526 94.1712 25.2289 94.2838L25.2372 94.2767C24.2235 93.9429 23.1234 93.985 22.1382 94.3953C22.1406 94.4014 22.1447 94.4068 22.15 94.4107C21.1824 94.8428 20.398 95.602 19.9345 96.555C20.6511 95.8741 21.5816 95.4629 22.5675 95.3916C21.4894 96.0083 19.6214 97.1801 19.4068 98.8701C19.4068 98.8701 25.8895 94.3253 29.0811 95.1638C29.0811 95.1638 28.6162 95.6916 29.718 97.6545L30.2185 95.8304C30.7973 94.0573 28.577 93.7952 27.6437 93.7608C27.645 93.7529 27.645 93.7449 27.6437 93.7371C27.6437 93.7371 27.7456 93.4524 27.9295 92.9839C28.8164 90.6327 29.8987 88.3598 31.1649 86.1892C31.1876 86.1424 31.2071 86.0941 31.2231 86.0445L30.9609 85.6887C31.0659 85.5773 31.1626 85.4584 31.2503 85.3329C31.5337 84.9005 31.6895 84.397 31.6998 83.8801C31.6792 83.1922 31.5101 82.517 31.2041 81.9006L32.0343 81.5175C32.077 81.6231 32.1244 81.7203 32.1671 81.814C32.179 81.8496 32.1908 81.8804 32.2027 81.9113C32.2264 81.9777 32.2537 82.0477 32.2774 82.1141C32.2893 82.1449 32.3011 82.1805 32.3166 82.2161C32.3403 82.2908 32.3593 82.356 32.3865 82.4272C32.3865 82.4462 32.402 82.4746 32.4103 82.5019L37.1543 81.0692L36.1035 80.2022L36.0561 80.156L36.0324 80.1358L18.0998 63.7984L18.1081 63.8067V63.7984C23.0893 66.2238 28.9115 69.043 38.778 73.6115C48.5033 78.0911 54.654 80.6992 57.8302 81.999C57.8575 82.0145 57.8847 82.0263 57.9085 82.0382L59.0945 82.5221C59.7741 82.7877 60.411 83.0332 60.4465 83.0487C60.5011 83.0178 60.5651 83.0024 60.6185 82.9751L24.3501 58.1174L46.7694 42.6612ZM21.678 50.3217L16.2697 54.4301L20.1492 45.9014V45.8931C20.8052 47.315 21.3185 48.7984 21.6815 50.3217H21.678ZM40.9804 79.7349L41.1168 80.3837L47.4347 84.109L49.0323 85.0388L48.157 82.7854C53.3696 84.3201 57.6167 84.4067 60.4382 83.0783C55.5234 84.53 43.3359 80.4264 40.9804 79.7349Z" fill="#DB0D15"/>
<path d="M6.94994 47.0198C6.94994 47.8903 8.91873 47.7776 8.91873 47.7776C8.91873 46.9771 7.42197 46.0128 7.42197 46.0128C6.4681 46.3525 5.42622 46.3525 4.47235 46.0128C3.86026 45.8151 3.20047 45.8218 2.59251 46.0318C1.99482 46.4592 1.42952 46.9301 0.901245 47.4408C2.81716 46.6427 4.94192 46.4948 6.94994 47.0198ZM20.1444 45.9025L16.2649 54.4312L21.6732 50.3193C21.313 48.8003 20.8028 47.3208 20.1503 45.9025H20.1444ZM60.4666 83.07C60.4666 83.07 48.3218 78.5169 18.0985 63.8209L36.1117 80.2164H36.12C36.8792 79.7579 37.7552 79.5298 38.6416 79.5597C39.528 79.5896 40.3866 79.8763 41.1132 80.3848L40.9804 79.7361C43.3322 80.4252 55.5624 84.5501 60.4666 83.07ZM31.2242 81.9101C31.5302 82.5264 31.6993 83.2017 31.7199 83.8895C31.7119 84.4068 31.5559 84.911 31.2704 85.3424C31.1804 85.4661 31.0838 85.5848 30.981 85.6982L31.5207 86.4359C31.888 86.1245 32.179 85.733 32.3714 85.2916C32.5639 84.8502 32.6526 84.3706 32.6308 83.8895C32.6121 83.0662 32.4146 82.2568 32.052 81.5175L31.2242 81.9101ZM20.3851 83.8788C21.2403 84.0152 22.0219 84.0864 22.0219 84.0864L22.061 83.6322C22.061 83.6322 21.2948 83.5669 20.4587 83.4293L20.3851 83.8788ZM19.7672 45.1293C19.3251 44.2794 18.7931 43.4794 18.1803 42.743L13.3544 46.2773C12.8999 46.5952 12.3432 46.7326 11.793 46.6627C11.2427 46.5927 10.7381 46.3205 10.3775 45.899C10.7569 46.2211 11.239 46.3969 11.7367 46.3947C12.2765 46.4021 12.7972 46.1955 13.1852 45.8202C13.5732 45.4449 13.7969 44.9313 13.8075 44.3916C13.8076 44.1244 13.7532 43.86 13.6474 43.6147C13.4655 43.2112 13.157 42.8781 12.7685 42.6659H12.7768C12.6633 42.6027 12.5709 42.5075 12.5112 42.3921C12.4515 42.2767 12.4272 42.1463 12.4412 42.0171C12.6532 41.5729 12.94 41.1685 13.2892 40.8216L15.6612 38.4117L15.6968 38.369L17.8447 36.1867L18.8884 35.1288C19.0841 34.9176 19.2015 34.7729 19.2015 34.7729L16.3966 35.9685C16.3966 35.9685 16.342 35.9376 16.6148 35.4371C16.8876 34.9366 17.5446 34.0234 17.5446 34.0234L12.3356 37.7368C12.6369 36.2804 15.8937 31.9111 15.8937 31.9111L12.4542 35.054C12.2242 33.957 14.2333 29.794 14.2333 29.794C13.4272 30.602 12.6963 31.4817 12.0498 32.4223C12.1652 31.3995 12.4744 30.4082 12.9607 29.5011C9.96157 32.609 7.99747 36.5687 7.33776 40.8371C6.73171 41.2154 7.10056 40.7552 6.81473 41.4502C4.80539 42.1311 3.11432 43.5231 2.05998 45.3641C2.65522 44.5674 3.43098 43.9234 4.32352 43.4849C5.21607 43.0463 6.19992 42.8258 7.19426 42.8414C7.19426 42.8414 10.6124 49.1475 9.12747 48.6399C7.64257 48.1323 8.34588 50.6312 8.34588 50.6312L5.54925 49.425C6.42005 51.0444 6.71884 52.9103 6.39725 54.7206C5.73162 55.7425 5.17735 56.8327 4.74394 57.9727L5.70106 57.8125C5.88845 57.4105 6.07228 57.0476 6.25967 56.7001C6.28756 56.6575 6.31252 56.6131 6.33439 56.5672C6.37353 56.4925 6.41267 56.4225 6.45893 56.349L6.53364 56.2162C6.57278 56.1497 6.60836 56.0798 6.65225 56.0133C6.67952 55.9659 6.7068 55.928 6.72697 55.8841C6.76966 55.8177 6.80524 55.7477 6.8515 55.6848C6.87017 55.6434 6.89239 55.6038 6.91791 55.5662C6.96061 55.4998 7.00331 55.4298 7.04719 55.3634C7.06647 55.3265 7.08868 55.2912 7.11361 55.2579C7.15501 55.1876 7.20055 55.1199 7.25 55.055C7.265 55.0247 7.2833 54.996 7.30456 54.9697C7.36267 54.8795 7.42316 54.7941 7.48839 54.7075L7.49669 54.6957C7.55955 54.602 7.62122 54.5201 7.68052 54.4336C7.6995 54.4146 7.71966 54.3826 7.73864 54.3589L7.87147 54.1798C7.89313 54.1486 7.91819 54.12 7.94619 54.0944C7.97703 54.0481 8.01261 53.9971 8.05175 53.9461C8.0801 53.9168 8.10627 53.8855 8.13002 53.8524C8.16561 53.8097 8.19644 53.767 8.23202 53.7279C8.2676 53.6888 8.28658 53.665 8.3103 53.6342L8.404 53.5156C8.43483 53.4848 8.45499 53.4527 8.48227 53.4219C8.51153 53.385 8.54281 53.3498 8.57597 53.3163C8.59969 53.2855 8.62697 53.2582 8.65069 53.2309C8.67441 53.2037 8.71355 53.1645 8.73608 53.129C8.75861 53.0934 8.78708 53.0708 8.81436 53.0471C8.84164 53.0234 8.86891 52.989 8.89975 52.957C8.93059 52.925 8.94245 52.9095 8.96617 52.8787C8.98989 52.8479 9.02428 52.8206 9.05156 52.7886C9.07648 52.7663 9.09877 52.7412 9.11798 52.7138C9.14475 52.6882 9.17329 52.6644 9.20337 52.6427C9.22162 52.6207 9.24102 52.5997 9.26149 52.5798C9.28876 52.5525 9.31604 52.517 9.34332 52.4944C9.3706 52.4719 9.3789 52.4589 9.39788 52.4482C9.44532 52.4019 9.47971 52.3663 9.51648 52.3236C9.53628 52.3116 9.55459 52.2973 9.57104 52.2809C9.5912 52.2569 9.61343 52.2347 9.63745 52.2145C9.65347 52.1977 9.6705 52.1819 9.68845 52.1671C9.71148 52.1518 9.73124 52.132 9.74657 52.109C9.77029 52.0971 9.7774 52.0853 9.80112 52.0734C9.81532 52.0526 9.83396 52.0352 9.85568 52.0224C9.86754 52.0105 9.8794 51.9916 9.89482 51.9833C9.91276 51.9702 9.9298 51.9559 9.94582 51.9406C9.9626 51.9319 9.97627 51.9182 9.98496 51.9014C10.0004 51.9014 10.0122 51.8824 10.0277 51.8706C10.0424 51.862 10.0546 51.8497 10.0632 51.835C10.0775 51.8316 10.0902 51.8232 10.0988 51.8113C10.1097 51.8042 10.119 51.7949 10.1261 51.784C10.1394 51.7785 10.1515 51.7704 10.1617 51.7603C10.1718 51.7573 10.1803 51.7505 10.1854 51.7413C10.1949 51.7347 10.2053 51.7295 10.2162 51.7259C10.2165 51.7228 10.2178 51.72 10.22 51.7178C10.2222 51.7156 10.225 51.7143 10.2281 51.714C10.2281 51.7022 10.2435 51.7022 10.2518 51.6951C10.2601 51.6879 10.2637 51.6868 10.2637 51.6832C10.2637 51.6796 10.2755 51.6749 10.2874 51.6749C10.2993 51.6749 10.2874 51.6666 10.2874 51.6666L10.2174 52.0022L9.35044 56.0715C12.604 52.2219 16.0823 48.5681 19.7672 45.1293ZM10.1166 44.7035L10.4914 44.5789C10.5019 44.6277 10.5191 44.6748 10.5424 44.7189C10.636 44.9537 10.7975 45.1553 11.0062 45.2979C11.2149 45.4405 11.4614 45.5176 11.7142 45.5195C11.8726 45.5228 12.03 45.4921 12.1755 45.4293C12.4174 45.3311 12.6224 45.1593 12.7614 44.9383L12.3712 44.7011C12.421 44.5893 12.4449 44.4677 12.4412 44.3453C12.4395 44.2053 12.4088 44.0672 12.3511 43.9397L13.2062 43.6467C13.2953 43.8536 13.3407 44.0767 13.3395 44.3019C13.3383 44.5272 13.2905 44.7497 13.1992 44.9557C13.1079 45.1616 12.9751 45.3464 12.8089 45.4985C12.6428 45.6506 12.4471 45.7668 12.2339 45.8397C12.0208 45.9125 11.7949 45.9406 11.5704 45.922C11.3459 45.9034 11.1277 45.8387 10.9294 45.7317C10.7312 45.6248 10.5572 45.4781 10.4183 45.3007C10.2794 45.1234 10.1787 44.9192 10.1225 44.7011L10.1166 44.7035Z" fill="black"/>
<path d="M89.1766 51.5373C88.3361 51.3556 87.4767 51.2759 86.6172 51.3001H84.1834V65.0448L84.442 64.8657L86.4428 63.4556L86.514 63.4046V59.5156H87.2754C88.5062 59.576 89.7161 59.1812 90.6745 58.4067C91.0975 58.031 91.4316 57.5658 91.6525 57.045C91.8734 56.5241 91.9757 55.9606 91.9519 55.3954C91.9668 54.8507 91.8692 54.3087 91.6651 53.8034C91.461 53.2981 91.1549 52.8404 90.7658 52.4588C90.3264 52.0171 89.7782 51.6992 89.1766 51.5373ZM87.1485 57.5314H86.508V53.3175H87.2268C89.0627 53.3175 89.9926 53.9971 89.9926 55.3563C89.9937 56.8056 89.0402 57.5314 87.1485 57.5314ZM102.12 59.1835C102.903 58.9722 103.598 58.5149 104.101 57.8789C104.667 57.1617 104.966 56.2696 104.945 55.3563C104.964 54.7827 104.852 54.2124 104.619 53.6881C104.385 53.1639 104.036 52.6994 103.597 52.3295C102.453 51.5478 101.075 51.1838 99.6942 51.2989H97.187V65.0448L97.4408 64.8657L99.4487 63.4556L99.5198 63.4046V59.4717H99.629L103.372 64.829L103.462 64.9618L103.599 64.8646L105.204 63.7046L105.341 63.6074L105.244 63.4745L102.12 59.1835ZM99.5104 57.5314V53.3175H100.229C102.07 53.3175 102.996 53.9971 102.996 55.3563C102.996 56.8048 102.047 57.5298 100.15 57.5314H99.5104ZM67.1831 51.7045C66.1405 51.4009 65.0566 51.264 63.9713 51.2989H61.0241V64.8883H63.9393C65.0075 64.9273 66.0753 64.8009 67.1048 64.5135C68.2009 64.106 69.176 63.4274 69.9388 62.541C70.7017 61.6546 71.2275 60.5893 71.4671 59.4447C71.7067 58.3001 71.6523 57.1134 71.309 55.9954C70.9658 54.8775 70.3448 53.8647 69.5041 53.0518C68.838 52.4387 68.0458 51.9789 67.1831 51.7045ZM67.8354 61.4903C67.3842 61.9002 66.8515 62.2102 66.2722 62.4C65.5642 62.6042 64.8289 62.6978 64.0923 62.6775H63.3534V53.5096H64.0923C65.4456 53.4123 66.786 53.8276 67.8472 54.6731C68.2943 55.1215 68.6487 55.6536 68.8901 56.239C69.1314 56.8244 69.2551 57.4516 69.254 58.0848C69.2529 58.718 69.1271 59.3447 68.8836 59.9293C68.6402 60.5138 68.284 61.0435 67.8354 61.4903ZM52.5357 53.2582C53.4313 53.2693 54.3073 53.5217 55.0714 53.9888L55.2161 54.0706L55.2944 53.9307L56.2669 52.2548L56.3488 52.1137L56.2076 52.0283C55.1381 51.3936 53.9193 51.054 52.6757 51.0439C51.6352 51.015 50.6019 51.2238 49.6542 51.6544C48.7066 52.085 47.8696 52.7259 47.207 53.5286C46.0933 54.8114 45.4838 56.4553 45.492 58.1541C45.4806 59.0737 45.6562 59.9861 46.0081 60.8359C46.36 61.6856 46.8808 62.455 47.539 63.0974C48.1904 63.7531 48.9671 64.2709 49.823 64.6197C50.6788 64.9686 51.5962 65.1414 52.5203 65.1279C53.8146 65.1239 55.0853 64.7803 56.2053 64.1316L56.2871 64.0806V63.9442L56.2681 63.9051L55.292 62.2221L55.2066 62.0739L55.0584 62.1711C54.8096 62.3332 54.5468 62.473 54.2733 62.5886C53.7259 62.8238 53.1336 62.9359 52.5381 62.9171C51.9171 62.9277 51.3006 62.8101 50.7271 62.5715C50.1537 62.3329 49.6356 61.9786 49.2054 61.5307C48.7615 61.0836 48.4124 60.5517 48.1789 59.9666C47.9453 59.3816 47.8322 58.7554 47.8462 58.1256C47.8321 57.4882 47.9449 56.8543 48.1783 56.2609C48.4117 55.6675 48.7608 55.1266 49.2054 54.6695C49.6314 54.2155 50.1476 53.8555 50.721 53.6127C51.2943 53.3698 51.912 53.2495 52.5345 53.2594L52.5357 53.2582ZM205.769 53.512L205.813 53.4646L207.657 51.5823L207.935 51.2977H200.054V64.8883H205.81L205.857 64.842L207.662 62.9598L207.929 62.6823H202.384V58.4612H204.096L204.143 58.4102L206.015 56.5363L206.292 56.2517H202.388V53.5132L205.769 53.512ZM165.891 53.512H168.939V65.0448L169.196 64.8657L171.197 63.4556L171.268 63.4046V53.5167H174.311V51.3024H165.891V53.512ZM116.6 51.0522C115.666 51.0399 114.739 51.2157 113.874 51.5692C113.01 51.9228 112.225 52.4467 111.567 53.1099C110.885 53.7784 110.346 54.5795 109.984 55.4639C109.622 56.3484 109.445 57.2975 109.464 58.2528C109.483 59.2082 109.697 60.1497 110.093 61.0193C110.489 61.8889 111.058 62.6684 111.767 63.3097C113.124 64.5205 114.891 65.1704 116.71 65.1277C118.528 65.0849 120.263 64.3529 121.562 63.0796C122.237 62.442 122.773 61.6708 123.134 60.8151C123.495 59.9593 123.674 59.0378 123.66 58.109C123.648 56.2403 122.9 54.4517 121.578 53.1303C120.257 51.8089 118.468 51.0611 116.6 51.0486V51.0522ZM119.921 61.5295C119.476 61.9812 118.945 62.3375 118.358 62.5765C117.771 62.8155 117.142 62.9322 116.508 62.9195C115.874 62.9156 115.247 62.7868 114.662 62.5404C114.077 62.2941 113.547 61.935 113.101 61.4837C112.655 61.0323 112.303 60.4976 112.064 59.9101C111.825 59.3225 111.703 58.6936 111.707 58.0592C111.711 57.4248 111.84 56.7974 112.086 56.2128C112.333 55.6282 112.692 55.0979 113.143 54.6521C113.595 54.2063 114.129 53.8537 114.717 53.6145C115.304 53.3754 115.933 53.2543 116.568 53.2582C117.195 53.2457 117.819 53.3636 118.398 53.6043C118.978 53.8449 119.502 54.2032 119.936 54.6565C120.386 55.1069 120.739 55.6441 120.975 56.2354C121.211 56.8266 121.324 57.4597 121.307 58.096C121.318 58.7318 121.201 59.3635 120.964 59.9534C120.726 60.5434 120.373 61.0797 119.924 61.5307L119.921 61.5295ZM221.842 53.0518C221.174 52.4391 220.381 51.9793 219.518 51.7045C218.475 51.4004 217.391 51.2635 216.306 51.2989H213.368V64.8883H216.28C217.35 64.9275 218.42 64.8011 219.452 64.5135C220.547 64.1042 221.52 63.4247 222.282 62.5382C223.043 61.6518 223.568 60.5871 223.808 59.4432C224.047 58.2994 223.993 57.1136 223.651 55.9961C223.309 54.8786 222.69 53.8658 221.852 53.0518H221.842ZM220.173 61.4903C219.721 61.8972 219.191 62.2069 218.614 62.4C217.903 62.604 217.165 62.6976 216.426 62.6775H215.688V53.5096H216.426C217.781 53.413 219.123 53.8282 220.188 54.6731C220.651 55.1105 221.015 55.6414 221.257 56.2306C221.499 56.8197 221.613 57.4535 221.591 58.09C221.615 58.7254 221.5 59.3584 221.256 59.9456C221.012 60.5328 220.644 61.0601 220.177 61.4915L220.173 61.4903ZM191.091 59.1823C191.873 58.9696 192.567 58.5125 193.072 57.8777C193.638 57.1611 193.936 56.2683 193.911 55.3551C193.93 54.7814 193.819 54.211 193.585 53.6868C193.351 53.1625 193.002 52.6981 192.563 52.3283C191.418 51.5485 190.04 51.1847 188.66 51.2977H186.148V65.0436L186.406 64.8646L188.414 63.4544L188.489 63.4034V59.4717H188.598L192.334 64.829L192.431 64.9618L192.569 64.8646L194.175 63.7046L194.304 63.6074L194.214 63.4745L191.091 59.1823ZM188.489 57.5302V53.3175H189.201C191.045 53.3175 191.968 53.9971 191.968 55.3563C191.968 56.8048 191.019 57.5298 189.121 57.5314L188.489 57.5302ZM159.511 51.3487L154.632 56.3513V51.1506L154.37 51.338L152.369 52.7435L152.298 52.7944V65.0448L152.565 64.8657L154.565 63.4556L154.632 63.4046V59.3081L154.869 59.0709L159.53 64.8302L159.62 64.9488L159.748 64.8669L161.464 63.707L161.613 63.605L161.494 63.4603L156.527 57.4816L162.416 51.5895L162.697 51.3048H159.558L159.511 51.3487ZM130.835 52.747L130.765 52.798V60.0327C130.819 60.8128 130.702 61.5952 130.422 62.3253C130.322 62.5223 130.165 62.6845 129.971 62.7904C129.777 62.8963 129.556 62.9409 129.336 62.9183C128.88 62.8959 128.441 62.7382 128.074 62.4652L127.926 62.368L127.84 62.5162L126.848 64.2229L126.769 64.3629L126.906 64.4483C127.639 64.8917 128.48 65.1266 129.336 65.1279C129.864 65.1445 130.389 65.0423 130.872 64.8288C131.354 64.6153 131.783 64.296 132.126 63.8944C132.496 63.4532 132.758 62.9318 132.892 62.3715C133.062 61.6064 133.135 60.8231 133.11 60.0398V51.1447L132.845 51.3321L130.835 52.747ZM145.164 53.512L145.214 53.4646L147.058 51.5823L147.327 51.2977H139.458V64.8883H145.205L145.26 64.842L147.058 62.9598L147.325 62.6823H141.787V58.4612H143.487L143.529 58.4102L145.402 56.5363L145.68 56.2517H141.784V53.5132L145.164 53.512Z" fill="white"/>
<path d="M228.393 55.7975C227.924 55.7959 227.466 55.6554 227.077 55.3937C226.688 55.1321 226.385 54.7611 226.207 54.3275C226.029 53.8939 225.983 53.4172 226.075 52.9577C226.168 52.4981 226.395 52.0762 226.727 51.7453C227.059 51.4144 227.481 51.1893 227.941 51.0984C228.401 51.0076 228.878 51.055 229.311 51.2348C229.744 51.4146 230.113 51.7186 230.374 52.1085C230.634 52.4984 230.773 52.9567 230.773 53.4255C230.773 53.7377 230.711 54.0468 230.592 54.3351C230.472 54.6235 230.296 54.8853 230.075 55.1057C229.854 55.3261 229.592 55.5006 229.303 55.6194C229.014 55.7381 228.705 55.7986 228.393 55.7975ZM228.393 51.4093C227.994 51.4093 227.604 51.5275 227.272 51.7491C226.941 51.9706 226.682 52.2855 226.53 52.6539C226.377 53.0223 226.337 53.4277 226.415 53.8188C226.493 54.2099 226.685 54.5692 226.967 54.8512C227.249 55.1332 227.608 55.3252 227.999 55.403C228.39 55.4808 228.796 55.4409 229.164 55.2882C229.533 55.1356 229.847 54.8772 230.069 54.5456C230.291 54.2141 230.409 53.8243 230.409 53.4255C230.412 53.1597 230.361 52.896 230.261 52.6499C230.161 52.4037 230.012 52.18 229.825 51.9917C229.637 51.8035 229.414 51.6545 229.168 51.5535C228.922 51.4525 228.658 51.4014 228.393 51.4033V51.4093ZM229.045 54.7953L228.333 53.722H227.859V54.7953H227.479V52.0675H228.589C228.703 52.0621 228.816 52.0794 228.922 52.1185C229.028 52.1576 229.126 52.2176 229.209 52.295C229.291 52.3725 229.358 52.4657 229.404 52.5692C229.45 52.6727 229.475 52.7844 229.477 52.8977C229.48 53.094 229.411 53.2847 229.283 53.4332C229.154 53.5816 228.975 53.6773 228.78 53.7018L229.507 54.787H229.033L229.045 54.7953ZM228.597 52.4091H227.87V53.3697H228.597C228.724 53.3697 228.846 53.3191 228.936 53.2291C229.026 53.139 229.077 53.0168 229.077 52.8894C229.077 52.762 229.026 52.6398 228.936 52.5498C228.846 52.4597 228.724 52.4091 228.597 52.4091Z" fill="white"/>
</g>
</svg>
