<svg width="51" height="55" viewBox="0 0 51 55" fill="none" xmlns="http://www.w3.org/2000/svg">
<mask id="mask0_12_582" style="mask-type:luminance" maskUnits="userSpaceOnUse" x="0" y="0" width="51" height="55">
<path d="M50.9999 0.050415H0.908203V54.9128H50.9999V0.050415Z" fill="white"/>
</mask>
<g mask="url(#mask0_12_582)">
<path fill-rule="evenodd" clip-rule="evenodd" d="M44.8419 49.6985L41.3776 46.6262L37.7168 43.361L39.2316 48.4368H6.77427C3.53827 48.4368 0.903442 45.9131 0.903442 42.7858V5.69892C0.903442 2.57176 3.53827 0.0480957 6.77427 0.0480957H45.1285C48.3643 0.0480957 50.9972 2.57176 50.9972 5.69892V54.9105L44.8419 49.6985ZM38.7168 15.7103C34.5951 12.7497 30.674 12.831 30.674 12.831L30.2733 13.2699C35.1401 14.6963 37.4003 16.7526 37.4003 16.7526C34.4228 15.1902 31.5036 14.42 28.7845 14.1213C26.7247 13.9019 24.7491 13.9567 23.004 14.1742C22.8296 14.1742 22.6893 14.2026 22.517 14.229C21.5152 14.3103 19.0808 14.6679 16.0171 15.9582C14.9592 16.4235 14.33 16.7526 14.33 16.7526C14.33 16.7526 16.7064 14.5847 21.8598 13.1601L21.5734 12.831C21.5734 12.831 17.6502 12.7497 13.5285 15.7103C13.5285 15.7103 9.40709 22.8709 9.40709 31.7036C9.40709 31.7036 11.8094 35.6802 18.137 35.8732C18.137 35.8732 19.197 34.6378 20.0546 33.5955C16.4199 32.553 15.0454 30.3606 15.0454 30.3606C15.0454 30.3606 15.3318 30.5516 15.8469 30.8258C15.8768 30.8543 15.9049 30.8787 15.961 30.9071C16.0473 30.964 16.1333 30.9884 16.2196 31.0453C16.9348 31.4294 17.6502 31.7302 18.3074 31.978C19.4835 32.4148 20.886 32.8558 22.517 33.1566C24.663 33.5426 27.1816 33.6768 29.9306 33.185C31.2751 32.9656 32.6497 32.5814 34.0803 32.0044C35.0821 31.6489 36.1981 31.1266 37.3722 30.385C37.3722 30.385 35.9416 32.6364 32.1907 33.6502C33.0504 34.6927 34.0803 35.8732 34.0803 35.8732C40.4079 35.6802 42.8382 31.7036 42.8382 31.7036C42.8382 22.8709 38.7168 15.7103 38.7168 15.7103ZM31.219 29.1536C29.614 29.1536 28.2977 27.7801 28.2977 26.1077C28.2977 24.4334 29.586 23.0619 31.219 23.0619C32.85 23.0619 34.1364 24.4334 34.1364 26.1077C34.1364 27.7801 32.85 29.1536 31.219 29.1536ZM20.7719 29.1536C19.1669 29.1536 17.8506 27.7801 17.8506 26.1077C17.8506 24.4334 19.1388 23.0619 20.7719 23.0619C22.4008 23.0619 23.7173 24.4334 23.6892 26.1077C23.6892 27.7801 22.4008 29.1536 20.7719 29.1536Z" fill="#00F0FF"/>
</g>
</svg>
