<svg xmlns="http://www.w3.org/2000/svg" viewBox="0 0 32 40" x="0px" y="0px"><title>web</title><g data-name="Layer 2"><path d="M30,15H2a1,1,0,0,0,0,2H30a1,1,0,0,0,0-2Z"/><path d="M2,8H30a1,1,0,0,0,0-2H2A1,1,0,0,0,2,8Z"/><path d="M30,24H2a1,1,0,0,0,0,2H30a1,1,0,0,0,0-2Z"/></g><text x="0" y="47" fill="#000000" font-size="5px" font-weight="bold" font-family="'Helvetica Neue', Helvetica, Arial-Unicode, Arial, Sans-serif">Created by firdaus husyaeni</text><text x="0" y="52" fill="#000000" font-size="5px" font-weight="bold" font-family="'Helvetica Neue', Helvetica, Arial-Unicode, Arial, Sans-serif">from the Noun Project</text></svg>