<svg width="60" height="60" viewBox="0 0 60 60" fill="none" xmlns="http://www.w3.org/2000/svg">
<mask id="mask0_12_570" style="mask-type:luminance" maskUnits="userSpaceOnUse" x="0" y="0" width="60" height="60">
<path d="M59.1192 0.578003H0.0825195V59.6147H59.1192V0.578003Z" fill="white"/>
</mask>
<g mask="url(#mask0_12_570)">
<path fill-rule="evenodd" clip-rule="evenodd" d="M58.9444 42.2675C58.8042 45.4037 58.2974 47.5465 57.5718 49.4281C56.0344 53.3935 52.898 56.5323 48.9303 58.0646C47.0609 58.7928 44.9035 59.3021 41.7671 59.4373C38.6186 59.5775 37.615 59.6095 29.5982 59.6095C21.5815 59.6095 20.5778 59.5775 17.4292 59.4373C14.2905 59.3021 12.1455 58.7928 10.2636 58.0646C8.30315 57.3292 6.51483 56.1632 5.03892 54.6628C3.54087 53.1893 2.37488 51.4132 1.62709 49.4281C0.901432 47.5587 0.392235 45.4037 0.254476 42.2675C0.114269 39.1188 0.079834 38.1152 0.079834 30.0986C0.079834 22.0843 0.114269 21.0806 0.26433 17.9197C0.402068 14.7835 0.911265 12.6384 1.63692 10.7591C2.37488 8.79864 3.54087 7.01032 5.03892 5.5344C6.51483 4.02158 8.29328 2.86792 10.2761 2.1201C12.1455 1.39445 14.3028 0.887719 17.4416 0.747512C20.5901 0.609752 21.5913 0.575317 29.6105 0.575317C37.6272 0.575317 38.6308 0.609753 41.7918 0.759813C44.928 0.897551 47.0731 1.4043 48.9548 2.13241C50.9154 2.86792 52.7011 4.03388 54.1796 5.5344C55.6925 7.01032 56.8461 8.7864 57.5939 10.769C58.3195 12.6384 58.8287 14.7957 58.9665 17.9321C59.1067 21.0806 59.1166 22.0843 59.1166 30.0986C59.1166 38.1152 59.082 39.1188 58.9444 42.2675ZM53.6483 18.1977C53.5229 15.3247 53.0382 13.7577 52.6324 12.7197C52.1601 11.4381 51.4098 10.2868 50.4307 9.3276C49.4837 8.34847 48.3178 7.59822 47.0385 7.12592C46.0006 6.72005 44.4435 6.23792 41.5606 6.11247C38.4561 5.97226 37.524 5.93783 29.6326 5.93783C21.7536 5.93783 20.8189 5.97226 17.7048 6.11247C14.8315 6.23792 13.2646 6.72005 12.2243 7.12592C10.945 7.59822 9.79131 8.34847 8.83684 9.3276C7.84316 10.2722 7.0929 11.4381 6.62061 12.7197C6.21718 13.7577 5.73014 15.3148 5.60468 18.1977C5.46692 21.2996 5.43249 22.2468 5.43249 30.1231C5.43249 37.9997 5.46692 38.9344 5.60468 42.0462C5.73014 44.9192 6.21718 46.4887 6.62061 47.5267C7.0929 48.8058 7.84316 49.9594 8.82225 50.9188C9.76683 51.8978 10.9328 52.6457 12.2144 53.118C13.2524 53.5238 14.8094 54.0059 17.6924 54.1339C20.7968 54.2717 21.7414 54.3061 29.6203 54.3061C37.4993 54.3061 38.434 54.2717 41.5481 54.1339C44.4214 54.0059 45.9883 53.5238 47.0263 53.118C49.5992 52.1266 51.641 50.085 52.6324 47.5145C53.0382 46.4763 53.5229 44.9192 53.6483 42.0339C53.7861 38.9222 53.8228 37.9997 53.8228 30.1231C53.8228 22.2468 53.7861 21.3121 53.6483 18.1977ZM45.3782 17.8755C43.4227 17.8755 41.836 16.289 41.836 14.3333C41.836 12.3778 43.4227 10.7936 45.3782 10.7936C47.3337 10.7936 48.918 12.3778 48.918 14.3333C48.918 16.289 47.3337 17.8755 45.3782 17.8755ZM29.6105 45.2661C21.2346 45.2661 14.4406 38.472 14.4406 30.0986C14.4406 21.7253 21.2346 14.9335 29.6105 14.9335C37.9838 14.9335 44.778 21.7253 44.778 30.0986C44.778 38.472 37.9838 45.2661 29.6105 45.2661ZM29.6105 20.2616C24.1767 20.2616 19.7685 24.6673 19.7685 30.0986C19.7685 35.53 24.1767 39.938 29.6105 39.938C35.0418 39.938 39.4498 35.53 39.4498 30.0986C39.4498 24.6673 35.0418 20.2616 29.6105 20.2616Z" fill="#00F0FF"/>
</g>
</svg>
