<svg width="171" height="46" viewBox="0 0 171 46" fill="none" xmlns="http://www.w3.org/2000/svg">
<path d="M131.792 41.7407C134.196 41.9207 136.588 42.1247 138.979 42.3406V0H131.792V41.7407ZM16.1916 26.0355L6.8282 0H0V46C2.39167 45.6641 4.78333 45.3281 7.18695 45.0162V20.0005L15.51 43.9844C18.1288 43.6844 20.7477 43.3965 23.3785 43.1205V0H16.1916V26.0355ZM30.2904 42.4606C36.9153 41.8607 43.5642 41.3568 50.2489 40.9729V33.8701C45.9797 34.1221 41.7226 34.41 37.4774 34.746V23.9958C40.2637 23.9718 43.9349 23.8878 47.1875 23.9238V16.8211C44.5926 16.8091 40.4191 16.8571 37.4774 16.8931V7.17475H50.2489V0H30.2904V42.4606ZM54.8528 7.17475H62.3746V40.397C64.7662 40.301 67.1579 40.229 69.5615 40.169V7.17475H77.0833V0H54.8528V7.17475ZM81.6873 39.965H88.8742V23.5639H98.6202V16.4611H88.8742V7.17475H101.753V0H81.6873V39.965ZM170.645 0H162.752L157.55 12.1059L152.875 0H145.102L153.461 21.6202L144.337 42.8326C146.86 43.0845 149.371 43.3485 151.894 43.6244L157.204 31.2906L162.453 44.8842C165.192 45.2321 167.918 45.6041 170.645 46H170.657L161.293 21.7762L170.645 0ZM113.544 0H106.357V40.325C112.886 40.5529 119.392 40.8769 125.873 41.3088V34.2061C121.771 33.9301 117.67 33.7021 113.544 33.5102V0Z" fill="#E50914"/>
</svg>
