<svg width="248" height="82" viewBox="0 0 248 82" fill="none" xmlns="http://www.w3.org/2000/svg">
<mask id="mask0_12_525" style="mask-type:luminance" maskUnits="userSpaceOnUse" x="0" y="0" width="248" height="82">
<path d="M247.474 0H0V81.0687H247.474V0Z" fill="white"/>
</mask>
<g mask="url(#mask0_12_525)">
<path d="M53.6974 56.2894H52.2681V63.2548H53.7507C55.8841 63.2548 57.2814 62.2841 57.2814 59.7667C57.2814 57.2493 55.8415 56.2894 53.6974 56.2894Z" fill="white"/>
<path d="M65.7084 35.9051C64.9189 35.105 61.079 33.2704 60.1509 32.5129C54.4973 37.4197 48.6519 41.6013 40.5344 41.6013C39.9104 41.6003 39.2869 41.5612 38.6677 41.484V44.0119C39.3184 44.076 39.9797 44.1187 40.6624 44.1187C47.8092 44.076 60.3322 40.4279 65.7084 35.9051Z" fill="white"/>
<path d="M39.5743 21.9527C47.5852 21.7074 52.8333 28.865 52.8333 28.865C52.8333 28.865 47.1585 36.7904 41.0997 36.7904C40.2948 36.791 39.4952 36.6613 38.7316 36.4065V38.7212C39.4706 38.8559 40.2205 38.9239 40.9718 38.9239C49.6546 38.9239 57.9748 28.7476 57.9748 28.7476C57.9748 28.7476 50.7319 19.1473 39.5957 19.5633L38.7316 19.6168V21.9954L39.5743 21.9527Z" fill="white"/>
<path d="M29.1741 29.5794C31.7393 27.0026 35.0996 25.3675 38.7103 24.9392V21.9952C36.1139 22.202 33.5906 22.9549 31.3056 24.2049C29.0206 25.4551 27.0256 27.1738 25.4513 29.2488C25.4513 29.2488 28.8008 40.193 38.7103 41.4409V38.7209C31.2435 37.3875 29.1741 29.5794 29.1741 29.5794Z" fill="white"/>
<path d="M38.6997 27.4889C35.5743 27.105 33.1422 30.0383 33.1422 30.0383C33.1422 30.0383 34.5076 34.9877 38.7103 36.4385V27.4889H38.6997Z" fill="white"/>
<path d="M44.3317 32.3851L48.4918 28.8542C47.4959 27.6431 46.2524 26.6587 44.8451 25.967C43.4378 25.2754 41.899 24.8922 40.3317 24.8434C39.7899 24.8482 39.2487 24.8803 38.7103 24.9395V27.4889C41.8357 27.8622 42.4543 29.2489 44.3317 32.3851Z" fill="white"/>
<path d="M0 0V81.0687H225.861L247.474 0H0ZM38.7103 19.6165V15.2217H69.399V47.7878H38.7103V43.9691C25.2486 42.6678 20.4486 28.8008 20.4486 28.8008C20.4486 28.8008 28.9288 20.4058 38.7103 19.6165ZM28.4487 65.8683H25.078V60.5347C25.078 58.8174 24.8645 57.8788 24.3206 57.3346C24.0747 57.0739 23.7767 56.8679 23.4458 56.7299C23.115 56.5921 22.7589 56.5257 22.4006 56.5348H19.6698V65.8469H16.2031V53.6012H22.4006C25.398 53.6012 28.47 54.2519 28.47 59.0948L28.4487 65.8683ZM37.8569 65.8683H32.8969L28.9714 53.6227H32.6834L35.4355 63.3295L38.3049 53.6227H41.8144L37.8569 65.8683ZM46.6998 65.8683H43.265V53.6227H46.6998V65.8683ZM59.3722 64.2575C58.3055 65.3243 57.3561 65.8683 54.3801 65.8683H48.8012V53.6227H53.6333C56.3748 53.6227 58.2094 53.9533 59.4787 55.66C60.2809 56.9337 60.672 58.4233 60.5988 59.9267C60.6863 61.467 60.2543 62.9921 59.3722 64.2575ZM65.6336 65.8683H62.199V53.6227H65.6444L65.6336 65.8683ZM77.5912 65.8683L76.8658 63.7348H71.1804L70.423 65.8683H67.031L71.8417 53.6333H76.4286L81.2713 65.8683H77.5912ZM83.6607 66.8816C83.3198 66.8901 82.9842 66.7969 82.6964 66.6139C82.4086 66.4309 82.182 66.1663 82.0451 65.854C81.9083 65.5417 81.8676 65.1956 81.928 64.8601C81.9886 64.5245 82.1474 64.2145 82.3849 63.9695C82.6221 63.7248 82.9271 63.5561 83.2606 63.4851C83.5941 63.414 83.9412 63.4439 84.2577 63.5709C84.5741 63.698 84.8457 63.9163 85.0375 64.1981C85.2296 64.4801 85.3332 64.8127 85.3354 65.1535C85.3383 65.6027 85.1642 66.0347 84.8507 66.356C84.5372 66.6776 84.1097 66.8625 83.6607 66.871V66.8816ZM222.939 77.0046H94.2211L113.667 4.05343H242.353L222.939 77.0046Z" fill="white"/>
<path d="M83.6606 63.778C83.3846 63.7716 83.113 63.8478 82.8806 63.9968C82.648 64.1457 82.4654 64.3607 82.3558 64.6139C82.2463 64.8674 82.2149 65.1476 82.2654 65.419C82.3162 65.6904 82.4467 65.9406 82.6405 66.1372C82.8341 66.3339 83.0821 66.4685 83.3527 66.5233C83.6232 66.5783 83.904 66.5513 84.159 66.4457C84.4142 66.3399 84.6319 66.1606 84.7844 65.9305C84.9368 65.7004 85.0173 65.4302 85.0152 65.154C85.021 64.9735 84.9901 64.7938 84.9245 64.6257C84.8587 64.4576 84.7595 64.3045 84.6328 64.1758C84.506 64.047 84.3547 63.9455 84.1875 63.8772C84.0204 63.8088 83.8411 63.7751 83.6606 63.778ZM83.97 66.0608L83.6392 65.3567H83.4473V66.0608H83.042V64.2474H83.778C83.8554 64.2431 83.9328 64.2543 84.0057 64.2808C84.0787 64.307 84.1455 64.3479 84.2022 64.4006C84.259 64.4535 84.3045 64.5172 84.3362 64.5879C84.3676 64.6587 84.3846 64.7351 84.386 64.8127C84.386 64.9197 84.3534 65.0239 84.2924 65.1117C84.2314 65.1994 84.1449 65.2663 84.0445 65.3034L84.4286 66.0608H83.97Z" fill="white"/>
<path d="M71.9164 61.5911H76.1513L74.0711 55.863L71.9164 61.5911Z" fill="white"/>
<path d="M83.7249 64.5776H83.4475V65.0683H83.7249C83.7606 65.0758 83.7977 65.0754 83.8332 65.0668C83.8687 65.0583 83.9019 65.0419 83.9303 65.0189C83.9586 64.9959 83.9814 64.967 83.9972 64.934C84.0129 64.9009 84.0212 64.8649 84.0212 64.8284C84.0212 64.7917 84.0129 64.7556 83.9972 64.7228C83.9814 64.6898 83.9586 64.6606 83.9303 64.6377C83.9019 64.6147 83.8687 64.5983 83.8332 64.5898C83.7977 64.5813 83.7606 64.5807 83.7249 64.5883V64.5776Z" fill="white"/>
<path d="M153.134 65.8577H146.468L138.67 52.8441H132.846V65.8577H126.691V33.9209H145.753C147.167 33.9209 148.524 34.4828 149.524 35.483C150.524 36.4832 151.086 37.84 151.086 39.2544V47.4999C151.086 48.9145 150.524 50.2711 149.524 51.2713C148.524 52.2716 147.167 52.8334 145.753 52.8334H145.379L153.134 65.8577ZM132.867 47.1799H143.214C143.424 47.1814 143.631 47.1409 143.825 47.0608C144.019 46.9805 144.194 46.8624 144.341 46.7133C144.488 46.5641 144.604 46.3869 144.682 46.1924C144.759 45.9976 144.797 45.7893 144.793 45.5799V41.2279C144.799 40.8013 144.636 40.39 144.341 40.0825C144.045 39.775 143.64 39.5963 143.214 39.5851H132.867V47.1799Z" fill="white"/>
<path d="M178.927 33.9209V39.4677H169.839V65.8577H163.641V39.4677H154.553V33.9209H178.927Z" fill="white"/>
<path d="M202.608 33.9209H209.445L199.472 49.068L210.043 65.8577H202.575L195.684 54.9669L188.698 65.8577H181.903L192.421 49.7719L182.501 33.9209H189.967L196.271 43.9798L202.608 33.9209Z" fill="white"/>
<path d="M213.658 33.9209V34.2624H212.699V36.8863H212.273V34.2624H211.365V33.9209H213.658ZM216.475 33.9209H216.87V36.8863H216.538V34.5716L215.676 36.0544H215.355L214.544 34.6463V36.8863H214.149V33.9209H214.523L215.515 35.649L216.475 33.9209Z" fill="white"/>
<path d="M126.659 17.4616C126.658 17.1679 126.714 16.8769 126.826 16.6052C126.937 16.3335 127.101 16.0864 127.309 15.8783C127.516 15.6701 127.762 15.505 128.033 15.3923C128.304 15.2796 128.595 15.2215 128.889 15.2216H137.315V17.6429H129.955C129.778 17.6429 129.607 17.7119 129.48 17.8353C129.353 17.9587 129.278 18.127 129.273 18.3043V24.5871C129.275 24.7622 129.344 24.9299 129.465 25.0564L130.403 25.9952C130.467 26.061 130.543 26.113 130.628 26.1479C130.712 26.1828 130.803 26.1998 130.894 26.1979H134.467C134.555 26.1979 134.642 26.1803 134.723 26.1465C134.804 26.1126 134.877 26.063 134.939 26.0004C135 25.9379 135.049 25.8636 135.081 25.7821C135.114 25.7007 135.13 25.6136 135.129 25.5258V23.1152H131.993V20.7043H137.763V26.3897C137.763 26.9783 137.53 27.5427 137.114 27.9586C136.698 28.3748 136.133 28.6085 135.545 28.6085H129.603C129.424 28.6099 129.252 28.541 129.123 28.4165L126.851 26.1338C126.729 26.0085 126.66 25.84 126.659 25.6644V17.4616Z" fill="white"/>
<path d="M142.649 17.6003V20.7364H148.057V23.1152H142.649V26.2297H149.337V28.6085H140.057V15.2216H149.337V17.6003H142.649Z" fill="white"/>
<path d="M153.924 28.6085H151.321V15.2216H160.655V17.6003H153.924V20.7364H159.321V23.1152H153.924V28.6085Z" fill="white"/>
<path d="M162.5 17.4616C162.497 16.874 162.726 16.309 163.138 15.8895C163.549 15.47 164.11 15.23 164.697 15.2216H171.375C171.964 15.2272 172.527 15.466 172.941 15.8858C173.355 16.3056 173.586 16.8722 173.583 17.4616V26.3897C173.584 26.6806 173.528 26.969 173.418 27.2381C173.308 27.5071 173.145 27.7519 172.94 27.958C172.735 28.1642 172.491 28.3279 172.222 28.4394C171.954 28.551 171.666 28.6085 171.375 28.6085H164.697C164.407 28.6072 164.121 28.5487 163.853 28.4363C163.586 28.3242 163.343 28.1603 163.139 27.9544C162.935 27.7482 162.774 27.5041 162.664 27.2356C162.554 26.9673 162.499 26.6799 162.5 26.3897V17.4616ZM170.34 26.2297C170.428 26.2313 170.515 26.2153 170.596 26.1826C170.678 26.15 170.752 26.1016 170.815 26.04C170.877 25.9784 170.927 25.9051 170.961 25.824C170.995 25.7431 171.012 25.6563 171.012 25.5684V18.283C171.012 18.1037 170.942 17.9317 170.816 17.804C170.69 17.6762 170.519 17.6031 170.34 17.6003H165.732C165.644 17.6017 165.557 17.6204 165.476 17.6555C165.395 17.6905 165.321 17.7412 165.26 17.8046C165.199 17.868 165.15 17.9429 165.118 18.025C165.085 18.107 165.069 18.1947 165.071 18.283V25.6005C165.071 25.7759 165.14 25.9441 165.264 26.0682C165.388 26.1921 165.557 26.2618 165.732 26.2618L170.34 26.2297Z" fill="white"/>
<path d="M186.874 28.6085H184.09L180.805 23.1578H178.362V28.6085H175.791V15.2216H183.77C184.064 15.2215 184.355 15.2796 184.626 15.3923C184.897 15.505 185.143 15.6701 185.35 15.8783C185.557 16.0864 185.721 16.3335 185.833 16.6052C185.944 16.8769 186.001 17.1679 185.999 17.4616V20.9176C186.001 21.2114 185.944 21.5025 185.833 21.774C185.721 22.0458 185.557 22.2929 185.35 22.501C185.143 22.7092 184.897 22.8743 184.626 22.987C184.355 23.0997 184.064 23.1578 183.77 23.1578H183.621L186.874 28.6085ZM178.341 20.779H182.682C182.858 20.7761 183.027 20.7041 183.15 20.5785C183.274 20.4528 183.343 20.2833 183.343 20.1069V18.283C183.345 18.1947 183.329 18.107 183.296 18.025C183.264 17.9429 183.215 17.868 183.154 17.8046C183.093 17.7412 183.019 17.6905 182.938 17.6555C182.857 17.6204 182.77 17.6017 182.682 17.6003H178.341V20.779Z" fill="white"/>
<path d="M197.136 17.6003H191.493C191.318 17.603 191.152 17.6736 191.028 17.797C190.905 17.9204 190.834 18.0871 190.831 18.2616V25.6005C190.831 25.7759 190.901 25.9441 191.025 26.0682C191.149 26.1921 191.318 26.2618 191.493 26.2618H197.136V28.6406H190.479C190.188 28.6406 189.9 28.5832 189.63 28.4717C189.361 28.3601 189.117 28.1968 188.911 27.9907C188.705 27.7847 188.541 27.5402 188.43 27.2709C188.318 27.0016 188.261 26.7133 188.261 26.4218V17.4616C188.259 17.1688 188.316 16.8787 188.426 16.6076C188.537 16.3366 188.7 16.0901 188.906 15.8821C189.112 15.6741 189.357 15.5087 189.627 15.3953C189.897 15.282 190.187 15.2229 190.479 15.2216H197.136V17.6003Z" fill="white"/>
<path d="M201.861 17.6003V20.7364H207.27V23.1152H201.861V26.2297H208.603V28.6085H199.269V15.2216H208.603V17.6003H201.861Z" fill="white"/>
</g>
</svg>
