<svg width="215" height="39" viewBox="0 0 215 39" fill="none" xmlns="http://www.w3.org/2000/svg">
<path d="M82.8298 6.6835V1.6424H66.986V6.6835H70.3525V17.2971H66.986V22.503H82.8298V17.2971H79.4974V6.6835H82.8298Z" fill="white"/>
<path d="M0.0153809 10.1901H7.74298V6.6835H11.2696L11.2724 17.2971H8.16878V22.503H23.7526V17.2971H20.6804V6.68635L24.4042 6.6835V10.1901H32.129V1.6424H0.0153809V10.1901Z" fill="white"/>
<path d="M210.149 17.3256C210.149 17.3256 207.469 14.8448 207.3 14.6913C211.55 13.9695 214.296 11.1762 214.296 8.16685C214.296 4.59488 210.275 1.6424 204.822 1.6424H182.051V6.71193H185.426V17.3256H182.051V22.503H198.098V17.3256H195.023V15.6149H201.604V22.5059H214.559V17.3284H210.149V17.3256ZM200.075 9.75251H195.023V7.4877H200.075C200.813 7.4877 201.27 8.10434 201.27 8.62437C201.27 9.23816 200.827 9.75251 200.075 9.75251Z" fill="white"/>
<path d="M150.283 6.6835H153.996V17.3142H150.281V22.503H180.871V16.2713H172.663V17.3142H163.618L163.601 13.782H170.317V8.60731H163.601V6.6835H172.666L172.663 7.85995H181.085V1.6424H150.281L150.283 6.6835Z" fill="white"/>
<path d="M61.4046 17.3256C61.4046 17.3256 58.724 14.8448 58.5555 14.6913C62.805 13.9695 65.5515 11.1762 65.5515 8.16685C65.5515 4.59488 61.5277 1.6424 56.0748 1.6424H33.3036V6.71193H36.6816V17.3256H33.3036V22.503H49.3532V17.3256H46.278V15.6149H52.8627V22.5059H65.8173V17.3284H61.4075L61.4046 17.3256ZM51.328 9.75251H46.278V7.4877H51.328C52.0653 7.4877 52.5226 8.10434 52.5226 8.62437C52.5226 9.23816 52.0797 9.75251 51.328 9.75251Z" fill="white"/>
<path d="M149.1 19.4596V9.56779H130.919V14.2423H139.424C139.424 14.2423 139.675 15.0522 138.915 15.7001C138.323 16.2059 136.617 16.527 135.46 16.618C134.199 16.7174 132.022 16.7259 130.07 15.8735C128.115 15.0238 126.561 13.7564 126.686 11.3694C126.818 8.86305 129.29 7.14385 131.559 6.80853C135.8 6.18336 138.006 6.854 138.678 7.39107C139.201 7.80595 139.426 8.39134 139.426 8.39134H149.092V1.90951C149.092 1.90951 143.016 1.27582 140.527 1.13658C136.914 0.934817 132.15 0.772842 128.921 1.29855C124.154 2.07432 116.861 4.5693 116.418 10.7982C115.946 17.4534 121.774 19.5165 125.52 20.5451C129.267 21.571 131.479 21.6278 133.225 21.75C134.022 21.8097 137.669 21.8125 139.569 23.2078C142.736 25.5323 141.956 31.0594 140.009 33.2331C138.566 34.8444 136.386 36.4187 135.963 36.7966C135.537 37.1744 134.817 37.8168 135.36 38.5526C135.906 39.2887 136.92 38.8483 138.526 37.9447C140.132 37.0383 143.445 34.7591 145.805 31.3862C148.011 28.2348 148.64 24.4268 148.64 24.4268C147.068 24.0603 146.071 22.7702 146.425 21.2442C146.648 20.2894 147.711 19.4596 149.1 19.4596ZM142.876 20.3661C141.53 20.3661 140.435 19.2806 140.435 17.9422C140.435 16.6037 141.527 15.5154 142.876 15.5154C144.225 15.5154 145.317 16.6009 145.317 17.9422C145.317 19.2834 144.225 20.3661 142.876 20.3661Z" fill="white"/>
<path d="M115.198 9.57631H97.0132V14.2508H105.518C105.518 14.2508 105.77 15.0607 105.009 15.7058C104.418 16.2144 102.712 16.5327 101.554 16.6236C100.294 16.7231 98.1162 16.7316 96.1616 15.8791C94.2069 15.0294 92.6521 13.7649 92.7778 11.3751C92.9093 8.86589 95.3843 7.14951 97.6506 6.81419C101.891 6.18902 104.101 6.85966 104.772 7.39675C105.295 7.81161 105.518 8.39985 105.518 8.39985H115.186V1.91801C115.186 1.91801 109.11 1.28148 106.621 1.14508C103.012 0.943322 98.2451 0.778506 95.0155 1.30421C90.2488 2.07999 82.9584 4.57781 82.5155 10.8067C82.0439 17.4619 87.8682 19.525 91.6148 20.5536C95.3613 21.5795 97.5763 21.6363 99.3194 21.7614C100.12 21.821 103.763 21.8239 105.664 23.2191C108.83 25.5437 108.05 31.0677 106.104 33.2416C104.661 34.8529 102.483 36.4272 102.057 36.8051C101.631 37.183 100.911 37.8254 101.454 38.5612C101.997 39.2972 103.017 38.8568 104.621 37.9532C106.227 37.0494 109.539 34.7705 111.9 31.3945C114.103 28.2431 114.732 24.4354 114.732 24.4354C113.163 24.0688 112.163 22.7815 112.52 21.2527C112.743 20.2979 113.806 19.471 115.198 19.471V9.57631ZM108.97 20.3775C107.624 20.3775 106.533 19.2891 106.533 17.9507C106.533 16.6123 107.624 15.5267 108.97 15.5267C110.317 15.5267 111.411 16.6123 111.411 17.9507C111.411 19.2891 110.319 20.3775 108.97 20.3775Z" fill="white"/>
</svg>
