<svg width="76" height="64" viewBox="0 0 76 64" fill="none" xmlns="http://www.w3.org/2000/svg">
<mask id="mask0_12_564" style="mask-type:luminance" maskUnits="userSpaceOnUse" x="0" y="0" width="76" height="64">
<path d="M75.8075 0.578003H0.490967V63.3418H75.8075V0.578003Z" fill="white"/>
</mask>
<g mask="url(#mask0_12_564)">
<path fill-rule="evenodd" clip-rule="evenodd" d="M64.8613 10.5418C68.0153 8.47389 70.1021 5.65266 71.1284 2.06884C68.056 3.80426 64.9994 4.99677 61.9491 5.65266C59.2001 2.50505 55.7199 0.907715 51.5587 0.907715C47.4821 0.907715 44.0459 2.42974 41.2308 5.39532C38.4378 8.38275 37.0289 12.0138 37.0289 16.2408C37.0289 17.5337 37.1825 18.676 37.4838 19.6584C25.4708 19.219 15.5228 13.903 7.68994 3.67873C6.36248 6.17673 5.69719 8.73122 5.69719 11.364C5.69719 16.7838 7.84371 21.0736 12.1242 24.2243C9.68268 24.0079 7.52989 23.3519 5.69719 22.2724C5.69719 26.1386 6.76417 29.371 8.90128 32.2142C11.0447 35.0292 13.8 36.8273 17.1609 37.59C15.9465 37.9226 14.6599 38.0826 13.3386 38.0826C12.1179 38.0826 11.2581 37.9696 10.7434 37.7374C11.6441 40.8881 13.3386 43.4489 15.7896 45.4041C18.2279 47.3653 21.0367 48.4072 24.1937 48.4951C18.9906 52.8479 13.0405 55.0037 6.31227 55.0037C4.66158 55.0037 3.49418 54.9818 2.78809 54.8405C9.41594 59.4318 16.7969 61.7068 24.9561 61.7068C33.3133 61.7068 40.6943 59.4506 47.1243 54.9379C53.5483 50.447 58.29 44.9113 61.3373 38.3934C64.4002 31.8722 65.9158 25.1 65.9158 18.017V16.0683C68.8752 13.6958 71.2695 11.0188 73.1022 8.06893C70.4473 9.28981 67.7015 10.1183 64.8613 10.5418Z" fill="#00F0FF"/>
</g>
</svg>
