<svg width="26" height="33" viewBox="0 0 26 33" fill="none" xmlns="http://www.w3.org/2000/svg">
<path d="M6.56699 32.4255H1.61699C1.28366 32.4255 1.05033 32.3255 0.916992 32.1255C0.783659 31.8922 0.783659 31.6255 0.916992 31.3255L8.66699 15.9755L1.16699 1.37553C1.03366 1.10887 1.03366 0.85887 1.16699 0.625535C1.30033 0.392203 1.53366 0.275537 1.86699 0.275537H6.66699C7.50033 0.275537 8.05033 0.625536 8.31699 1.32554L13.067 12.0755H13.267L17.967 1.32554C18.3003 0.625536 18.8337 0.275537 19.567 0.275537H24.467C24.8003 0.275537 25.0337 0.408869 25.167 0.675535C25.3337 0.908869 25.3503 1.15887 25.217 1.42554L17.617 15.9755L25.367 31.2755C25.5337 31.6089 25.5503 31.8922 25.417 32.1255C25.2837 32.3255 25.0337 32.4255 24.667 32.4255H19.667C18.967 32.4255 18.4837 32.0922 18.217 31.4255L13.267 20.6255H13.067L8.06699 31.4255C7.76699 32.0922 7.26699 32.4255 6.56699 32.4255Z" fill="white"/>
</svg>
