<svg width="1920" height="48" viewBox="0 0 1920 48" fill="none" xmlns="http://www.w3.org/2000/svg">
<g clip-path="url(#clip0_131_802)">
<path d="M944.931 4.96811L948.426 8.47002L951.934 4.96811H944.931ZM1193.34 13.0261H1187.65L1187.68 13.0504H1193.31L1193.34 13.0261ZM1586.65 12.8323L1580.12 6.27678H1569.09L1555.46 20.5752L1555.44 20.551V20.5752L1547.59 13.0504H1193.3L1190.48 15.8737L1195.19 20.5752H1185.79L1190.48 15.8737L1187.66 13.0504H1117.91L1113.91 9.02741L1106.01 1.11479L1100.75 6.38584L1074.08 6.26466H1069.8L1059 17.0854H1030.29L1024.1 10.8935L960.715 10.9298L955.792 15.8616L948.414 8.4579L945.947 10.9298L804.968 10.8935L794.083 0L773.558 20.5631L765.829 12.8201H762.551L760.761 14.6135L763.604 17.4611H757.919L760.749 14.6135L758.995 12.8565L701.012 12.8201V48H1920V12.8201H1586.69L1586.65 12.8323ZM1074 14.9891H1072.52V13.5108H1074V14.9891ZM1074 12.0204H1072.52V10.5421H1074V12.0204ZM1085.46 14.9891H1083.99V10.5421H1085.46V14.9891ZM1091.13 12.0204H1089.66V10.5421H1091.13V12.0204ZM1501.22 20.5631H1496.78V16.1161H1501.22V20.5631ZM1516.01 20.5631H1514.53V16.1161H1516.01V20.5631ZM1526.36 20.5631H1524.89V16.1161H1526.36V20.5631ZM1528.6 20.5631H1527.12V16.1161H1528.6V20.5631Z" fill="#FCEE0A"/>
<path d="M589.936 6.97192L593.432 10.4738L593.434 10.4719L596.939 6.97192H589.936Z" fill="#FCEE0A"/>
<path d="M594.432 10.4736L594.42 10.4615L591.952 12.9334L338.976 12.8971L331.494 5.92285H321.995L307.565 20.5631L299.836 12.8201H296.559L294.768 14.6134L297.611 17.461H291.926L294.756 14.6134L293.003 12.8564L266.019 12.8201L255.996 24.4568H212.996V47.9999H701.988V38.4825L702.109 17.0854V12.8971L606.72 12.9334L601.798 15.8615L594.434 10.4717L594.432 10.4736Z" fill="#FCEE0A"/>
<path d="M0 36.9797H213.996V47.9999H0V36.9797Z" fill="#FCEE0A"/>
<path d="M207.996 24.5H209.996V36.9798H207.996V24.5Z" fill="#FCEE0A"/>
<path d="M200.997 24.5H202.997V36.9798H200.997V24.5Z" fill="#FCEE0A"/>
<path d="M191.997 24.5H193.997V36.9798H191.997V24.5Z" fill="#FCEE0A"/>
<path d="M195.997 24.5H198.997V36.9798H195.997V24.5Z" fill="#FCEE0A"/>
<path d="M205.997 24.5H206.997V36.9798H205.997V24.5Z" fill="#FCEE0A"/>
<path d="M189.997 24.5H190.997V36.9798H189.997V24.5Z" fill="#FCEE0A"/>
<path d="M182.997 24.5H183.997V36.9798H182.997V24.5Z" fill="#FCEE0A"/>
<path d="M179.997 24.5H180.997V36.9798H179.997V24.5Z" fill="#FCEE0A"/>
</g>
<defs>
<clipPath id="clip0_131_802">
<rect width="1920" height="48" fill="white"/>
</clipPath>
</defs>
</svg>
