<svg width="60" height="69" viewBox="0 0 60 69" fill="none" xmlns="http://www.w3.org/2000/svg">
<mask id="mask0_12_558" style="mask-type:luminance" maskUnits="userSpaceOnUse" x="0" y="0" width="60" height="69">
<path d="M59.9312 0H0V68.9209H59.9312V0Z" fill="white"/>
</mask>
<g mask="url(#mask0_12_558)">
<path fill-rule="evenodd" clip-rule="evenodd" d="M59.1609 63.5208C58.6574 64.5876 57.9622 65.5225 57.0844 66.3256C56.2123 67.1347 55.2054 67.7611 54.0578 68.2254C52.91 68.678 51.6695 68.9146 50.3301 68.9146H11.1831C9.87658 68.9146 8.64799 68.678 7.49419 68.2254C6.34663 67.7611 5.33669 67.1347 4.46769 66.3256C3.59869 65.5225 2.89749 64.5876 2.38808 63.5208C1.87866 62.4541 1.62695 61.3005 1.62695 60.036V39.7133C1.62695 38.5087 1.87867 37.364 2.39108 36.2701C2.8975 35.1734 3.60169 34.2265 4.46769 33.4474C5.33969 32.6594 6.35262 32.0241 7.5033 31.5507C8.65086 31.0712 9.87945 30.8315 11.186 30.8315H50.333C51.6366 30.8315 52.8712 31.0712 54.0399 31.5507C55.1994 32.0241 56.2183 32.6594 57.0904 33.4474C57.9714 34.2325 58.6574 35.1794 59.1669 36.2701C59.6794 37.364 59.9251 38.5087 59.9251 39.7133V60.036C59.9251 61.3005 59.6734 62.4541 59.1609 63.5208ZM20.5532 38.2598H9.72962V40.888H13.1996V58.8522H16.5469V40.9627H20.5532V38.2598ZM28.7098 43.5908H25.3628V53.1408C25.3628 53.8331 25.3717 54.3665 25.3928 54.738C25.4196 55.1156 25.3717 55.3522 25.2489 55.4541C25.147 55.8616 24.8682 56.1673 24.3859 56.3591C23.9244 56.548 23.5649 56.2783 23.316 55.532C23.2621 55.4273 23.2561 55.1724 23.2801 54.78C23.3072 54.3753 23.316 53.8539 23.316 53.2067L23.2472 43.5908H19.894L19.9719 53.06C19.9719 53.8031 19.957 54.4264 19.933 54.9298C19.9059 55.4273 19.9151 55.8108 19.9719 56.0685C20.0198 56.4849 20.0618 56.9224 20.1128 57.4019C20.1577 57.8753 20.3885 58.2589 20.808 58.5406C21.1976 58.8014 21.6499 58.9332 22.1685 58.9332C22.6987 58.9332 23.2082 58.8373 23.7056 58.6544C24.2061 58.4718 24.6585 58.226 25.0811 57.9084C25.5066 57.5908 25.8243 57.2432 26.0101 56.8805L25.9441 58.7714L28.7098 58.8462V43.5908ZM39.5245 46.5663C39.5245 45.0472 39.0211 43.9593 38.0023 43.3212C37.6636 43.1174 37.268 43.0095 36.8365 43.0095C36.0305 43.0095 35.1105 43.4111 34.0648 44.211V38.2598H30.7147V58.6995L33.4895 58.6185L33.6992 57.3479C34.5982 58.1481 35.4133 58.6365 36.1264 58.8162C36.8456 58.9932 37.4478 58.9212 37.9452 58.6005C38.4458 58.2829 38.8322 57.7555 39.111 57.0154C39.3867 56.2843 39.5245 55.4361 39.5245 54.4863V46.5663ZM50.0904 53.4855H47.5793V53.8719V55.2204C47.5793 55.631 47.4383 55.9515 47.1627 56.1884C46.8841 56.419 46.5513 56.524 46.1649 56.524H45.6435C45.2628 56.524 44.9392 56.419 44.6846 56.1884C44.4269 55.9515 44.2979 55.631 44.2979 55.2204V55.0646V53.5574V51.5466H50.0904V49.425C50.0904 48.6279 50.0813 47.8579 50.0513 47.1297C50.0305 46.3956 49.9705 45.8172 49.8775 45.4128C49.7757 44.7116 49.4851 44.1511 48.9757 43.7287C48.4811 43.3061 47.9029 43.0124 47.2317 42.8626C46.5664 42.7039 45.8832 42.6799 45.188 42.7818C44.5017 42.8865 43.9084 43.1263 43.3841 43.5158C42.7368 43.9744 42.2663 44.6157 41.9637 45.4128C41.673 46.2067 41.5322 47.3155 41.5322 48.7358V53.4884C41.5322 55.4932 42.0357 56.9284 43.0274 57.7734C43.9475 58.5676 44.9152 58.9692 45.9372 58.9692C46.0331 58.9692 46.1318 58.9692 46.2368 58.9692C47.3815 58.9002 48.3852 58.3819 49.2602 57.4258C49.9166 56.7306 50.2462 55.8168 50.2462 54.6841C50.2071 54.3214 50.1652 53.9199 50.0904 53.4855ZM44.8074 46.042C45.101 45.7752 45.4517 45.6374 45.8653 45.6374H46.0151C46.4435 45.6374 46.815 45.7723 47.1238 46.0269C47.4204 46.2786 47.5793 46.6294 47.5793 47.0728L47.5043 48.9576H44.301L44.3699 47.0728C44.3699 46.6562 44.5197 46.3206 44.8074 46.042ZM36.5249 55.9515C36.2163 56.1884 35.8776 56.3051 35.488 56.3051C35.0956 56.3051 34.754 56.1884 34.4452 55.9515C34.1427 55.7238 33.9989 55.4541 33.9989 55.1425V46.1799C33.9989 45.8682 34.1456 45.5985 34.4452 45.3528C34.754 45.104 35.0956 44.9813 35.488 44.9813C35.8776 44.9813 36.2163 45.104 36.5249 45.3528C36.8276 45.5985 36.9775 45.8771 36.9775 46.1799V55.1425C36.9775 55.4541 36.8276 55.7178 36.5249 55.9515ZM43.7406 24.8652C43.3302 25.4796 42.9406 25.9591 42.563 26.2916C42.0956 26.6032 41.5922 26.7562 41.0317 26.7562C40.3664 26.7562 39.8091 26.6032 39.3747 26.2916C38.9911 26.019 38.6555 25.5995 38.3647 25.051C38.266 24.7993 38.1821 24.5327 38.155 24.281C38.1221 24.0202 38.0802 23.7596 38.0171 23.5168C37.9632 23.2051 37.9332 22.7916 37.9332 22.2613V20.2297V7.50924H41.688V22.2194C41.688 22.6029 41.8139 22.9115 42.0716 23.1963C42.3473 23.4688 42.6889 23.6098 43.1264 23.6098C43.5339 23.6098 43.8844 23.4688 44.1721 23.1963C44.4689 22.9146 44.6187 22.6029 44.6187 22.2194V7.50924H48.0976V26.3906H43.6598L43.7406 24.8652ZM34.2655 24.9551C33.7441 25.7222 33.1807 26.2348 32.5725 26.4805C31.8354 26.8521 31.0143 27.0319 30.0823 27.0319C29.1294 27.0319 28.2424 26.876 27.4664 26.5673C26.7321 26.3247 26.1958 25.8752 25.8511 25.2308C25.5066 24.7305 25.2099 24.0382 24.9732 23.1423C24.8023 22.3033 24.7095 21.0536 24.7095 19.3487V14.3504C24.7095 12.6544 24.8623 11.246 25.147 10.1462C25.5066 9.00153 26.0669 8.18347 26.852 7.68604C27.6431 7.07175 28.647 6.76011 29.8665 6.76011C30.9424 6.76011 31.8354 6.95189 32.5725 7.31447C33.2977 7.62312 33.891 8.16249 34.3554 8.93261C34.7089 9.49896 34.9758 10.1222 35.1464 10.8384C35.3114 11.6025 35.4073 12.6424 35.4073 13.9398V18.7973C35.4073 20.5593 35.3114 21.8178 35.1464 22.6029C35.0745 23.301 34.7928 24.0952 34.2655 24.9551ZM31.8622 11.8543C31.8622 11.2939 31.6884 10.8324 31.3228 10.4459C30.9604 10.0593 30.5377 9.86454 30.0823 9.86454C29.6119 9.86454 29.1984 10.0593 28.8388 10.4459C28.4732 10.8324 28.2903 11.2939 28.2903 11.8543V21.8958C28.2903 22.3872 28.4641 22.8307 28.8177 23.2171C29.1624 23.5978 29.5879 23.7896 30.0763 23.7896C30.5377 23.7896 30.9573 23.6098 31.3228 23.2351C31.6884 22.8695 31.8622 22.4172 31.8622 21.8958V11.8543ZM20.0378 26.9448H15.7618V12.4506L10.3949 0.00585938H15.0666L17.7424 9.30718L20.4005 0.00585938H25.0631L20.0378 12.4506V26.9448Z" fill="#00F0FF"/>
</g>
</svg>
